<svg width="1050" height="164" viewBox="0 0 1050 164" fill="none" xmlns="http://www.w3.org/2000/svg">
<path fill-rule="evenodd" clip-rule="evenodd" d="M162.61 0H147.827V146.324L162.61 161.079V0Z" fill="#21B9BA"/>
<path fill-rule="evenodd" clip-rule="evenodd" d="M133.045 0H118.262V116.813L133.045 131.569V0Z" fill="#21B9BA"/>
<path fill-rule="evenodd" clip-rule="evenodd" d="M103.481 0H88.6987V87.3028L103.481 102.058V0Z" fill="#21B9BA"/>
<path fill-rule="evenodd" clip-rule="evenodd" d="M59.1279 58.4077V161.079H73.9107V73.163L59.1279 58.4077Z" fill="#33F8FF"/>
<path fill-rule="evenodd" clip-rule="evenodd" d="M29.5737 28.894V161.081H44.3565V43.6493L29.5737 28.894Z" fill="#33F8FF"/>
<path fill-rule="evenodd" clip-rule="evenodd" d="M0.620251 0H0V161.079H14.7827V14.1362L0.620251 0Z" fill="#33F8FF"/>
<path d="M269.523 61.6937H293.352V77.6402H293.77C295.999 72.6699 299.831 68.3208 305.266 64.5931C310.84 60.7272 317.389 58.7943 324.914 58.7943C331.463 58.7943 337.037 59.9679 341.635 62.315C346.373 64.524 350.205 67.4924 353.131 71.2202C356.197 74.948 358.426 79.228 359.82 84.0603C361.213 88.8926 361.91 93.8629 361.91 98.9713V161.101H336.828V106.013C336.828 103.113 336.619 100.076 336.201 96.9003C335.783 93.7248 334.877 90.8945 333.483 88.4093C332.09 85.7861 330.139 83.6461 327.631 81.9893C325.262 80.3325 322.057 79.5041 318.016 79.5041C313.975 79.5041 310.491 80.3325 307.565 81.9893C304.639 83.508 302.2 85.51 300.249 87.9951C298.438 90.4803 297.044 93.3797 296.069 96.6932C295.093 99.8687 294.606 103.113 294.606 106.427V161.101H269.523V61.6937Z" fill="white"/>
<path d="M387.417 110.983C387.417 103.113 388.81 96.0029 391.597 89.6519C394.524 83.1628 398.425 77.6402 403.302 73.0841C408.18 68.5279 413.962 65.0073 420.651 62.5221C427.34 60.0369 434.446 58.7943 441.971 58.7943C449.496 58.7943 456.602 60.0369 463.291 62.5221C469.98 65.0073 475.762 68.5279 480.64 73.0841C485.517 77.6402 489.349 83.1628 492.136 89.6519C495.062 96.0029 496.525 103.113 496.525 110.983C496.525 118.853 495.062 126.032 492.136 132.521C489.349 139.01 485.517 144.602 480.64 149.296C475.762 153.852 469.98 157.442 463.291 160.065C456.602 162.688 449.496 164 441.971 164C434.446 164 427.34 162.688 420.651 160.065C413.962 157.442 408.18 153.852 403.302 149.296C398.425 144.602 394.524 139.01 391.597 132.521C388.81 126.032 387.417 118.853 387.417 110.983ZM412.917 110.983C412.917 114.849 413.475 118.715 414.589 122.58C415.844 126.446 417.655 129.898 420.024 132.935C422.393 135.973 425.389 138.458 429.012 140.391C432.635 142.324 436.955 143.29 441.971 143.29C446.987 143.29 451.307 142.324 454.93 140.391C458.553 138.458 461.549 135.973 463.918 132.935C466.287 129.898 468.029 126.446 469.144 122.58C470.398 118.715 471.025 114.849 471.025 110.983C471.025 107.117 470.398 103.32 469.144 99.5926C468.029 95.7268 466.287 92.2752 463.918 89.2377C461.549 86.2003 458.553 83.7841 454.93 81.9893C451.307 80.0564 446.987 79.0899 441.971 79.0899C436.955 79.0899 432.635 80.0564 429.012 81.9893C425.389 83.7841 422.393 86.2003 420.024 89.2377C417.655 92.2752 415.844 95.7268 414.589 99.5926C413.475 103.32 412.917 107.117 412.917 110.983Z" fill="white"/>
<path d="M508.513 81.5751V61.6937H526.07V32.9071H550.735V61.6937H575.817V81.5751H550.735V127.758C550.735 132.176 551.501 135.835 553.034 138.734C554.706 141.633 558.329 143.083 563.903 143.083C565.575 143.083 567.387 142.945 569.337 142.669C571.288 142.255 573.03 141.703 574.563 141.012L575.399 160.479C573.169 161.308 570.522 161.929 567.456 162.343C564.391 162.896 561.464 163.172 558.677 163.172C551.989 163.172 546.554 162.274 542.374 160.479C538.193 158.546 534.849 155.992 532.341 152.817C529.972 149.503 528.3 145.775 527.324 141.634C526.488 137.353 526.07 132.797 526.07 127.965V81.5751H508.513Z" fill="white"/>
<path d="M596.477 61.6937H621.559V161.101H596.477V61.6937ZM592.924 27.9367C592.924 23.9328 594.387 20.4812 597.313 17.5818C600.379 14.5444 604.211 13.0257 608.809 13.0257C613.408 13.0257 617.24 14.4754 620.305 17.3747C623.51 20.136 625.113 23.6567 625.113 27.9367C625.113 32.2168 623.51 35.8065 620.305 38.7058C617.24 41.4671 613.408 42.8478 608.809 42.8478C604.211 42.8478 600.379 41.3981 597.313 38.4987C594.387 35.4613 592.924 31.9406 592.924 27.9367Z" fill="white"/>
<path d="M648.226 110.983C648.226 103.113 649.619 96.0029 652.406 89.6519C655.332 83.1628 659.234 77.6402 664.111 73.0841C668.988 68.5279 674.771 65.0073 681.46 62.5221C688.149 60.0369 695.255 58.7943 702.78 58.7943C710.305 58.7943 717.411 60.0369 724.1 62.5221C730.789 65.0073 736.571 68.5279 741.449 73.0841C746.326 77.6402 750.158 83.1628 752.945 89.6519C755.871 96.0029 757.334 103.113 757.334 110.983C757.334 118.853 755.871 126.032 752.945 132.521C750.158 139.01 746.326 144.602 741.449 149.296C736.571 153.852 730.789 157.442 724.1 160.065C717.411 162.688 710.305 164 702.78 164C695.255 164 688.149 162.688 681.46 160.065C674.771 157.442 668.988 153.852 664.111 149.296C659.234 144.602 655.332 139.01 652.406 132.521C649.619 126.032 648.226 118.853 648.226 110.983ZM673.726 110.983C673.726 114.849 674.284 118.715 675.398 122.58C676.652 126.446 678.464 129.898 680.833 132.935C683.202 135.973 686.198 138.458 689.821 140.391C693.444 142.324 697.763 143.29 702.78 143.29C707.796 143.29 712.116 142.324 715.739 140.391C719.362 138.458 722.358 135.973 724.727 132.935C727.096 129.898 728.838 126.446 729.952 122.58C731.207 118.715 731.834 114.849 731.834 110.983C731.834 107.117 731.207 103.32 729.952 99.5926C728.838 95.7268 727.096 92.2752 724.727 89.2377C722.358 86.2003 719.362 83.7841 715.739 81.9893C712.116 80.0564 707.796 79.0899 702.78 79.0899C697.763 79.0899 693.444 80.0564 689.821 81.9893C686.198 83.7841 683.202 86.2003 680.833 89.2377C678.464 92.2752 676.652 95.7268 675.398 99.5926C674.284 103.32 673.726 107.117 673.726 110.983Z" fill="white"/>
<path d="M783.744 61.6937H807.572V77.6402H807.99C810.22 72.6699 814.052 68.3208 819.486 64.5931C825.06 60.7272 831.609 58.7943 839.134 58.7943C845.683 58.7943 851.257 59.9679 855.856 62.315C860.593 64.524 864.425 67.4924 867.352 71.2202C870.417 74.948 872.647 79.228 874.04 84.0603C875.434 88.8926 876.13 93.8629 876.13 98.9713V161.101H851.048V106.013C851.048 103.113 850.839 100.076 850.421 96.9003C850.003 93.7248 849.097 90.8945 847.704 88.4093C846.31 85.7861 844.36 83.6461 841.851 81.9893C839.482 80.3325 836.277 79.5041 832.236 79.5041C828.195 79.5041 824.712 80.3325 821.785 81.9893C818.859 83.508 816.421 85.51 814.47 87.9951C812.658 90.4803 811.265 93.3797 810.289 96.6932C809.314 99.8687 808.826 103.113 808.826 106.427V161.101H783.744V61.6937Z" fill="white"/>
<path d="M969.778 148.468H969.151C966.642 152.886 962.601 156.545 957.027 159.444C951.454 162.205 945.113 163.586 938.007 163.586C933.966 163.586 929.716 163.034 925.257 161.929C920.937 160.963 916.896 159.306 913.133 156.959C909.51 154.474 906.445 151.298 903.937 147.432C901.568 143.428 900.383 138.527 900.383 132.728C900.383 125.273 902.473 119.336 906.654 114.918C910.974 110.5 916.478 107.117 923.166 104.77C929.855 102.423 937.24 100.904 945.322 100.214C953.544 99.3855 961.556 98.9713 969.36 98.9713V96.4861C969.36 90.2732 967.06 85.7171 962.462 82.8177C958.003 79.7802 952.638 78.2615 946.367 78.2615C941.072 78.2615 935.986 79.3661 931.109 81.5751C926.232 83.7841 922.191 86.4764 918.986 89.6519L906.027 74.5338C911.74 69.2873 918.289 65.3524 925.675 62.7292C933.199 60.1059 940.794 58.7943 948.458 58.7943C957.376 58.7943 964.692 60.0369 970.405 62.5221C976.257 65.0073 980.856 68.2518 984.2 72.2557C987.544 76.2596 989.844 80.7467 991.098 85.7171C992.491 90.6874 993.188 95.6578 993.188 100.628V161.101H969.778V148.468ZM969.36 115.746H963.716C959.675 115.746 955.425 115.953 950.966 116.368C946.507 116.644 942.396 117.403 938.634 118.646C934.871 119.75 931.736 121.407 929.228 123.616C926.72 125.687 925.466 128.586 925.466 132.314C925.466 134.661 925.953 136.663 926.929 138.32C928.043 139.839 929.437 141.081 931.109 142.048C932.781 143.014 934.662 143.704 936.753 144.119C938.843 144.533 940.933 144.74 943.023 144.74C951.663 144.74 958.212 142.462 962.671 137.906C967.13 133.35 969.36 127.137 969.36 119.267V115.746Z" fill="white"/>
<path d="M1024.92 4.53467H1050V161.101H1024.92V4.53467Z" fill="white"/>
</svg>
