<svg width="1099" height="805" viewBox="0 0 1099 805" fill="none" xmlns="http://www.w3.org/2000/svg">
<path d="M0 660.458H33.5528V682.987H34.1415C37.2809 675.965 42.6768 669.821 50.3292 664.554C58.1779 659.092 67.4 656.361 77.9956 656.361C87.2178 656.361 95.0664 658.019 101.541 661.335C108.213 664.456 113.609 668.65 117.729 673.917C122.046 679.184 125.185 685.231 127.148 692.058C129.11 698.885 130.091 705.907 130.091 713.125V800.904H94.772V723.073C94.772 718.977 94.4777 714.685 93.8891 710.199C93.3004 705.712 92.025 701.714 90.0629 698.202C88.1007 694.496 85.3537 691.473 81.8218 689.132C78.4862 686.791 73.9732 685.621 68.283 685.621C62.5927 685.621 57.6873 686.791 53.5668 689.132C49.4463 691.278 46.0125 694.106 43.2655 697.617C40.7147 701.128 38.7525 705.225 37.379 709.906C36.0055 714.393 35.3188 718.977 35.3188 723.658V800.904H0V660.458Z" fill="#012E3A"/>
<path d="M166.007 730.095C166.007 718.977 167.97 708.931 171.894 699.958C176.014 690.79 181.508 682.987 188.376 676.55C195.244 670.113 203.386 665.139 212.805 661.628C222.223 658.117 232.23 656.361 242.826 656.361C253.421 656.361 263.428 658.117 272.847 661.628C282.265 665.139 290.408 670.113 297.276 676.55C304.143 682.987 309.539 690.79 313.463 699.958C317.584 708.931 319.644 718.977 319.644 730.095C319.644 741.214 317.584 751.357 313.463 760.525C309.539 769.693 304.143 777.593 297.276 784.226C290.408 790.663 282.265 795.734 272.847 799.441C263.428 803.147 253.421 805 242.826 805C232.23 805 222.223 803.147 212.805 799.441C203.386 795.734 195.244 790.663 188.376 784.226C181.508 777.593 176.014 769.693 171.894 760.525C167.97 751.357 166.007 741.214 166.007 730.095ZM201.915 730.095C201.915 735.557 202.7 741.019 204.269 746.481C206.035 751.943 208.586 756.819 211.922 761.111C215.257 765.402 219.476 768.913 224.578 771.644C229.679 774.375 235.762 775.74 242.826 775.74C249.889 775.74 255.972 774.375 261.074 771.644C266.175 768.913 270.394 765.402 273.73 761.111C277.065 756.819 279.518 751.943 281.088 746.481C282.854 741.019 283.737 735.557 283.737 730.095C283.737 724.634 282.854 719.269 281.088 714.003C279.518 708.541 277.065 703.664 273.73 699.373C270.394 695.081 266.175 691.668 261.074 689.132C255.972 686.401 249.889 685.036 242.826 685.036C235.762 685.036 229.679 686.401 224.578 689.132C219.476 691.668 215.257 695.081 211.922 699.373C208.586 703.664 206.035 708.541 204.269 714.003C202.7 719.269 201.915 724.634 201.915 730.095Z" fill="#012E3A"/>
<path d="M336.524 688.547V660.458H361.247V619.787H395.977V660.458H431.296V688.547H395.977V753.796C395.977 760.038 397.056 765.207 399.215 769.303C401.569 773.4 406.671 775.448 414.52 775.448C416.874 775.448 419.425 775.253 422.172 774.863C424.919 774.277 427.372 773.497 429.53 772.522L430.707 800.026C427.568 801.196 423.84 802.074 419.523 802.659C415.206 803.439 411.086 803.83 407.161 803.83C397.743 803.83 390.091 802.562 384.204 800.026C378.318 797.295 373.609 793.686 370.077 789.2C366.741 784.518 364.387 779.252 363.013 773.4C361.836 767.353 361.247 760.915 361.247 754.088V688.547H336.524Z" fill="#012E3A"/>
<path d="M460.388 660.458H495.707V800.904H460.388V660.458ZM455.385 612.765C455.385 607.108 457.445 602.231 461.565 598.135C465.882 593.843 471.278 591.698 477.753 591.698C484.228 591.698 489.624 593.746 493.941 597.842C498.454 601.743 500.71 606.718 500.71 612.765C500.71 618.811 498.454 623.883 493.941 627.979C489.624 631.881 484.228 633.831 477.753 633.831C471.278 633.831 465.882 631.783 461.565 627.687C457.445 623.395 455.385 618.421 455.385 612.765Z" fill="#012E3A"/>
<path d="M533.256 730.095C533.256 718.977 535.218 708.931 539.142 699.958C543.263 690.79 548.757 682.987 555.625 676.55C562.492 670.113 570.635 665.139 580.053 661.628C589.472 658.117 599.479 656.361 610.074 656.361C620.67 656.361 630.677 658.117 640.095 661.628C649.514 665.139 657.657 670.113 664.524 676.55C671.392 682.987 676.788 690.79 680.712 699.958C684.832 708.931 686.893 718.977 686.893 730.095C686.893 741.214 684.832 751.357 680.712 760.525C676.788 769.693 671.392 777.593 664.524 784.226C657.657 790.663 649.514 795.734 640.095 799.441C630.677 803.147 620.67 805 610.074 805C599.479 805 589.472 803.147 580.053 799.441C570.635 795.734 562.492 790.663 555.625 784.226C548.757 777.593 543.263 769.693 539.142 760.525C535.218 751.357 533.256 741.214 533.256 730.095ZM569.163 730.095C569.163 735.557 569.948 741.019 571.518 746.481C573.284 751.943 575.835 756.819 579.17 761.111C582.506 765.402 586.725 768.913 591.826 771.644C596.928 774.375 603.011 775.74 610.074 775.74C617.138 775.74 623.221 774.375 628.322 771.644C633.424 768.913 637.643 765.402 640.978 761.111C644.314 756.819 646.767 751.943 648.336 746.481C650.102 741.019 650.985 735.557 650.985 730.095C650.985 724.634 650.102 719.269 648.336 714.003C646.767 708.541 644.314 703.664 640.978 699.373C637.643 695.081 633.424 691.668 628.322 689.132C623.221 686.401 617.138 685.036 610.074 685.036C603.011 685.036 596.928 686.401 591.826 689.132C586.725 691.668 582.506 695.081 579.17 699.373C575.835 703.664 573.284 708.541 571.518 714.003C569.948 719.269 569.163 724.634 569.163 730.095Z" fill="#012E3A"/>
<path d="M724.081 660.458H757.634V682.987H758.222C761.362 675.965 766.758 669.821 774.41 664.554C782.259 659.092 791.481 656.361 802.076 656.361C811.299 656.361 819.147 658.019 825.622 661.335C832.294 664.456 837.69 668.65 841.81 673.917C846.127 679.184 849.266 685.231 851.228 692.058C853.191 698.885 854.172 705.907 854.172 713.125V800.904H818.853V723.073C818.853 718.977 818.559 714.685 817.97 710.199C817.381 705.712 816.106 701.714 814.144 698.202C812.181 694.496 809.434 691.473 805.903 689.132C802.567 686.791 798.054 685.621 792.364 685.621C786.674 685.621 781.768 686.791 777.648 689.132C773.527 691.278 770.093 694.106 767.346 697.617C764.796 701.128 762.833 705.225 761.46 709.906C760.086 714.393 759.4 718.977 759.4 723.658V800.904H724.081V660.458Z" fill="#012E3A"/>
<path d="M986.037 783.055H985.154C981.623 789.297 975.932 794.466 968.084 798.563C960.235 802.464 951.307 804.415 941.3 804.415C935.61 804.415 929.626 803.635 923.347 802.074C917.264 800.709 911.574 798.368 906.276 795.052C901.174 791.541 896.858 787.054 893.326 781.592C889.99 775.935 888.322 769.011 888.322 760.818C888.322 750.285 891.265 741.897 897.152 735.655C903.235 729.413 910.985 724.634 920.404 721.318C929.822 718.001 940.221 715.856 951.602 714.88C963.178 713.71 974.461 713.125 985.449 713.125V709.614C985.449 700.836 982.211 694.399 975.736 690.302C969.457 686.011 961.903 683.865 953.073 683.865C945.617 683.865 938.455 685.426 931.588 688.547C924.72 691.668 919.03 695.472 914.517 699.958L896.269 678.599C904.314 671.186 913.536 665.627 923.935 661.921C934.531 658.214 945.225 656.361 956.016 656.361C968.574 656.361 978.876 658.117 986.92 661.628C995.161 665.139 1001.64 669.723 1006.35 675.38C1011.05 681.037 1014.29 687.376 1016.06 694.399C1018.02 701.421 1019 708.443 1019 715.466V800.904H986.037V783.055ZM985.449 736.825H977.502C971.812 736.825 965.827 737.118 959.548 737.703C953.27 738.093 947.481 739.166 942.183 740.921C936.886 742.482 932.471 744.823 928.939 747.944C925.407 750.87 923.641 754.966 923.641 760.233C923.641 763.549 924.328 766.377 925.701 768.718C927.271 770.864 929.233 772.619 931.588 773.985C933.942 775.35 936.591 776.326 939.534 776.911C942.478 777.496 945.421 777.789 948.364 777.789C960.529 777.789 969.752 774.57 976.031 768.133C982.309 761.696 985.449 752.918 985.449 741.799V736.825Z" fill="#012E3A"/>
<path d="M1063.68 579.701H1099V800.904H1063.68V579.701Z" fill="#012E3A"/>
<path fill-rule="evenodd" clip-rule="evenodd" d="M756.159 0H718.726V370.411L756.159 407.764V0Z" fill="#1F9B99"/>
<path fill-rule="evenodd" clip-rule="evenodd" d="M681.29 0H643.856V295.705L681.29 333.058V0Z" fill="#1F9B99"/>
<path fill-rule="evenodd" clip-rule="evenodd" d="M606.428 0H568.994V221.003L606.428 258.355V0Z" fill="#1F9B99"/>
<path fill-rule="evenodd" clip-rule="evenodd" d="M494.114 147.853V407.763H531.548V185.205L494.114 147.853Z" fill="#2DE1E8"/>
<path fill-rule="evenodd" clip-rule="evenodd" d="M419.274 73.1445V407.768H456.708V110.497L419.274 73.1445Z" fill="#2DE1E8"/>
<path fill-rule="evenodd" clip-rule="evenodd" d="M345.958 0H344.387V407.761H381.82V35.784L345.958 0Z" fill="#2DE1E8"/>
</svg>
