<svg width="1099" height="805" viewBox="0 0 1099 805" fill="none" xmlns="http://www.w3.org/2000/svg">
<path fill-rule="evenodd" clip-rule="evenodd" d="M666.712 0H633.706V326.7L666.712 359.644V0Z" fill="#21B9BA"/>
<path fill-rule="evenodd" clip-rule="evenodd" d="M600.7 0H567.694V260.811L600.7 293.755V0Z" fill="#21B9BA"/>
<path fill-rule="evenodd" clip-rule="evenodd" d="M534.694 0H501.688V194.923L534.694 227.867V0Z" fill="#21B9BA"/>
<path fill-rule="evenodd" clip-rule="evenodd" d="M435.666 130.407V359.645H468.672V163.352L435.666 130.407Z" fill="#33F8FF"/>
<path fill-rule="evenodd" clip-rule="evenodd" d="M369.678 64.5125V359.649H402.683V97.4569L369.678 64.5125Z" fill="#33F8FF"/>
<path fill-rule="evenodd" clip-rule="evenodd" d="M305.034 0H303.649V359.643H336.655V31.5626L305.034 0Z" fill="#33F8FF"/>
<path d="M0 582.519H29.5839V602.39H30.1029C32.871 596.197 37.6286 590.777 44.3758 586.132C51.296 581.315 59.4273 578.906 68.7696 578.906C76.9008 578.906 83.821 580.369 89.5302 583.293C95.4124 586.046 100.17 589.745 103.803 594.39C107.609 599.036 110.377 604.369 112.107 610.391C113.837 616.412 114.702 622.606 114.702 628.971V706.392H83.5615V637.746C83.5615 634.133 83.302 630.348 82.783 626.391C82.264 622.434 81.1394 618.907 79.4094 615.81C77.6793 612.541 75.2573 609.874 72.1432 607.81C69.2021 605.745 65.223 604.713 60.2058 604.713C55.1887 604.713 50.8635 605.745 47.2304 607.81C43.5973 609.702 40.5697 612.197 38.1477 615.294C35.8986 618.391 34.1685 622.004 32.9575 626.133C31.7465 630.09 31.1409 634.133 31.1409 638.262V706.392H0V582.519Z" fill="white"/>
<path d="M146.371 643.939C146.371 634.133 148.101 625.272 151.561 617.358C155.194 609.272 160.038 602.39 166.093 596.713C172.148 591.035 179.328 586.648 187.632 583.552C195.937 580.455 204.76 578.906 214.102 578.906C223.444 578.906 232.268 580.455 240.572 583.552C248.876 586.648 256.056 591.035 262.111 596.713C268.166 602.39 272.924 609.272 276.384 617.358C280.017 625.272 281.834 634.133 281.834 643.939C281.834 653.746 280.017 662.692 276.384 670.778C272.924 678.864 268.166 685.832 262.111 691.682C256.056 697.359 248.876 701.832 240.572 705.101C232.268 708.37 223.444 710.005 214.102 710.005C204.76 710.005 195.937 708.37 187.632 705.101C179.328 701.832 172.148 697.359 166.093 691.682C160.038 685.832 155.194 678.864 151.561 670.778C148.101 662.692 146.371 653.746 146.371 643.939ZM178.03 643.939C178.03 648.757 178.723 653.574 180.107 658.391C181.664 663.208 183.913 667.509 186.854 671.294C189.795 675.079 193.514 678.176 198.013 680.585C202.511 682.994 207.874 684.198 214.102 684.198C220.33 684.198 225.693 682.994 230.192 680.585C234.69 678.176 238.409 675.079 241.35 671.294C244.291 667.509 246.454 663.208 247.838 658.391C249.395 653.574 250.174 648.757 250.174 643.939C250.174 639.122 249.395 634.391 247.838 629.746C246.454 624.928 244.291 620.627 241.35 616.842C238.409 613.057 234.69 610.046 230.192 607.81C225.693 605.401 220.33 604.197 214.102 604.197C207.874 604.197 202.511 605.401 198.013 607.81C193.514 610.046 189.795 613.057 186.854 616.842C183.913 620.627 181.664 624.928 180.107 629.746C178.723 634.391 178.03 639.122 178.03 643.939Z" fill="white"/>
<path d="M296.717 607.294V582.519H318.515V546.648H349.137V582.519H380.278V607.294H349.137V664.843C349.137 670.348 350.089 674.907 351.992 678.52C354.068 682.133 358.566 683.94 365.486 683.94C367.562 683.94 369.812 683.768 372.234 683.424C374.656 682.907 376.818 682.219 378.721 681.359L379.759 705.617C376.991 706.65 373.704 707.424 369.898 707.94C366.092 708.628 362.459 708.972 358.999 708.972C350.694 708.972 343.947 707.854 338.757 705.617C333.567 703.209 329.415 700.026 326.301 696.069C323.36 691.94 321.284 687.295 320.072 682.133C319.034 676.8 318.515 671.122 318.515 665.101V607.294H296.717Z" fill="white"/>
<path d="M405.929 582.519H437.07V706.392H405.929V582.519ZM401.517 540.454C401.517 535.465 403.334 531.164 406.967 527.551C410.773 523.766 415.531 521.873 421.24 521.873C426.949 521.873 431.707 523.68 435.513 527.293C439.492 530.734 441.482 535.121 441.482 540.454C441.482 545.788 439.492 550.261 435.513 553.874C431.707 557.315 426.949 559.035 421.24 559.035C415.531 559.035 410.773 557.229 406.967 553.616C403.334 549.831 401.517 545.444 401.517 540.454Z" fill="white"/>
<path d="M470.177 643.939C470.177 634.133 471.907 625.272 475.368 617.358C479.001 609.272 483.845 602.39 489.9 596.713C495.955 591.035 503.135 586.648 511.439 583.552C519.743 580.455 528.567 578.906 537.909 578.906C547.251 578.906 556.075 580.455 564.379 583.552C572.683 586.648 579.863 591.035 585.918 596.713C591.973 602.39 596.731 609.272 600.191 617.358C603.824 625.272 605.641 634.133 605.641 643.939C605.641 653.746 603.824 662.692 600.191 670.778C596.731 678.864 591.973 685.832 585.918 691.682C579.863 697.359 572.683 701.832 564.379 705.101C556.075 708.37 547.251 710.005 537.909 710.005C528.567 710.005 519.743 708.37 511.439 705.101C503.135 701.832 495.955 697.359 489.9 691.682C483.845 685.832 479.001 678.864 475.368 670.778C471.907 662.692 470.177 653.746 470.177 643.939ZM501.837 643.939C501.837 648.757 502.529 653.574 503.914 658.391C505.471 663.208 507.72 667.509 510.661 671.294C513.602 675.079 517.321 678.176 521.82 680.585C526.318 682.994 531.681 684.198 537.909 684.198C544.137 684.198 549.5 682.994 553.999 680.585C558.497 678.176 562.216 675.079 565.157 671.294C568.098 667.509 570.261 663.208 571.645 658.391C573.202 653.574 573.981 648.757 573.981 643.939C573.981 639.122 573.202 634.391 571.645 629.746C570.261 624.928 568.098 620.627 565.157 616.842C562.216 613.057 558.497 610.046 553.999 607.81C549.5 605.401 544.137 604.197 537.909 604.197C531.681 604.197 526.318 605.401 521.82 607.81C517.321 610.046 513.602 613.057 510.661 616.842C507.72 620.627 505.471 624.928 503.914 629.746C502.529 634.391 501.837 639.122 501.837 643.939Z" fill="white"/>
<path d="M638.43 582.519H668.014V602.39H668.533C671.301 596.197 676.058 590.777 682.806 586.132C689.726 581.315 697.857 578.906 707.199 578.906C715.331 578.906 722.251 580.369 727.96 583.293C733.842 586.046 738.6 589.745 742.233 594.39C746.039 599.036 748.807 604.369 750.537 610.391C752.267 616.412 753.132 622.606 753.132 628.971V706.392H721.991V637.746C721.991 634.133 721.732 630.348 721.213 626.391C720.694 622.434 719.569 618.907 717.839 615.81C716.109 612.541 713.687 609.874 710.573 607.81C707.632 605.745 703.653 604.713 698.636 604.713C693.618 604.713 689.293 605.745 685.66 607.81C682.027 609.702 679 612.197 676.577 615.294C674.328 618.391 672.598 622.004 671.387 626.133C670.176 630.09 669.571 634.133 669.571 638.262V706.392H638.43V582.519Z" fill="white"/>
<path d="M869.4 690.65H868.621C865.507 696.155 860.49 700.714 853.57 704.327C846.65 707.768 838.778 709.488 829.955 709.488C824.937 709.488 819.661 708.8 814.125 707.424C808.761 706.22 803.744 704.155 799.073 701.23C794.575 698.133 790.769 694.176 787.655 689.359C784.714 684.37 783.243 678.262 783.243 671.036C783.243 661.746 785.838 654.348 791.028 648.843C796.392 643.337 803.225 639.122 811.53 636.197C819.834 633.273 829.003 631.38 839.037 630.52C849.245 629.488 859.192 628.971 868.881 628.971V625.875C868.881 618.133 866.026 612.455 860.317 608.842C854.781 605.057 848.12 603.165 840.335 603.165C833.761 603.165 827.446 604.541 821.391 607.294C815.336 610.046 810.318 613.401 806.339 617.358L790.25 598.519C797.343 591.982 805.474 587.078 814.644 583.81C823.986 580.541 833.415 578.906 842.93 578.906C854.002 578.906 863.085 580.455 870.178 583.552C877.445 586.648 883.154 590.691 887.306 595.681C891.458 600.67 894.313 606.261 895.87 612.455C897.6 618.649 898.465 624.842 898.465 631.036V706.392H869.4V690.65ZM868.881 649.875H861.874C856.857 649.875 851.58 650.133 846.044 650.649C840.508 650.993 835.404 651.939 830.733 653.488C826.062 654.864 822.169 656.929 819.055 659.681C815.941 662.262 814.384 665.875 814.384 670.52C814.384 673.445 814.99 675.94 816.201 678.004C817.585 679.897 819.315 681.445 821.391 682.649C823.467 683.854 825.802 684.714 828.397 685.23C830.993 685.746 833.588 686.004 836.183 686.004C846.909 686.004 855.04 683.166 860.576 677.488C866.113 671.811 868.881 664.069 868.881 654.262V649.875Z" fill="white"/>
<path d="M937.859 511.293H969V706.392H937.859V511.293Z" fill="white"/>
</svg>
